<svg width="173" height="173" viewBox="0 0 173 173" fill="none" xmlns="http://www.w3.org/2000/svg">
<path d="M172.556 86.7037C172.556 134.118 134.118 172.556 86.7037 172.556C39.289 172.556 0.851837 134.118 0.851837 86.7037C0.851837 39.289 39.289 0.851852 86.7037 0.851852C134.118 0.851852 172.556 39.289 172.556 86.7037Z" fill="#0D1C47"/>
<path d="M86.7037 97.963V111.333L102.185 102.889V93.037C98.807 95.852 89.7531 97.728 86.7037 97.963Z" fill="#D3BC80"/>
<path d="M86.7037 97.963V110.63L71.2222 102.185V93.037C74.6 95.852 83.6543 97.728 86.7037 97.963Z" fill="#DFCB92"/>
<path d="M86.7037 110.63V172.556C97.025 172.79 121.889 170.585 138.778 154.259V119.074C138.585 116.179 136.328 110.046 129.264 105.14C125.993 102.869 121.941 102.185 117.958 102.185H102.185L86.7037 110.63Z" fill="#23569F"/>
<path d="M86.7037 110.63V172.556C76.3827 172.79 49.4074 169.178 32.5185 152.852V119.074C32.7126 116.163 36.4388 109.977 44.0956 105.058C47.4461 102.906 51.4666 102.185 55.449 102.185H71.2222L86.7037 110.63Z" fill="#65D2FA"/>
<path d="M61.3704 73.3334C62.2342 93.509 78.0649 98.801 86.7037 97.963V29C78.2593 31.8148 72.3951 34.3951 70.5185 35.3333C64.3259 38.7111 61.8395 45.1852 61.3704 48V57.8519C57.8519 56.0926 55.9753 59.7284 55.7407 61.3704V67.7037C56.3037 72.7704 59.7284 73.5679 61.3704 73.3334Z" fill="#EBDBA5"/>
<path d="M112.037 73.3334C111.173 93.509 95.342 98.801 86.7037 97.963V29C95.148 31.8148 101.012 34.3951 102.889 35.3333C109.081 38.7111 111.568 45.1852 112.037 48V57.8519C115.978 56.7259 117.432 59.7284 117.667 61.3704V67.7037C117.104 72.7704 113.679 73.5679 112.037 73.3334Z" fill="#E7D095"/>
<path d="M55.7407 61.3704C55.7407 60.2445 58.5556 56.4444 61.3704 57.8519L61.5134 47.2963C62.9208 42.3704 67.7003 36.9551 70.5151 35.7823C73.8929 43.1008 82.7126 50.56 86.7003 53.3748C89.5151 56.1897 96.318 58.3007 99.367 59.0044C106.685 62.9451 110.392 70.4983 111.33 73.7823L112.034 80.8193L114.848 86.4489L115.552 74.486L116.96 71.9259L117.667 68.4074L118.092 63.4815V57.8519L118.37 48C116.681 29.9852 96.083 25.9304 86.7003 26.6341C65.8706 23.2563 57.3793 39.7699 55.7373 48.4489C55.7373 52.4365 55.7407 62.4963 55.7407 61.3704Z" fill="#F8E24C"/>
<path d="M69.8148 102.185C69.8148 103.74 68.5546 105 67 105C65.4454 105 64.1852 103.74 64.1852 102.185C64.1852 100.631 65.4454 99.37 67 99.37C68.5546 99.37 69.8148 100.631 69.8148 102.185Z" fill="white"/>
<path d="M74.037 107.815C74.037 109.369 72.7768 110.63 71.2222 110.63C69.6676 110.63 68.4074 109.369 68.4074 107.815C68.4074 106.26 69.6676 105 71.2222 105C72.7768 105 74.037 106.26 74.037 107.815Z" fill="white"/>
<path d="M81.0741 112.037C81.0741 113.592 79.8138 114.852 78.2593 114.852C76.7047 114.852 75.4444 113.592 75.4444 112.037C75.4444 110.482 76.7047 109.222 78.2593 109.222C79.8138 109.222 81.0741 110.482 81.0741 112.037Z" fill="white"/>
<path d="M89.5185 114.852C89.5185 116.406 88.2583 117.667 86.7037 117.667C85.1491 117.667 83.8889 116.406 83.8889 114.852C83.8889 113.297 85.1491 112.037 86.7037 112.037C88.2583 112.037 89.5185 113.297 89.5185 114.852Z" fill="white"/>
<path d="M96.556 112.037C96.556 113.592 95.295 114.852 93.741 114.852C92.186 114.852 90.9259 113.592 90.9259 112.037C90.9259 110.482 92.186 109.222 93.741 109.222C95.295 109.222 96.556 110.482 96.556 112.037Z" fill="white"/>
<path d="M103.593 109.222C103.593 110.777 102.332 112.037 100.778 112.037C99.223 112.037 97.963 110.777 97.963 109.222C97.963 107.668 99.223 106.407 100.778 106.407C102.332 106.407 103.593 107.668 103.593 109.222Z" fill="white"/>
<path d="M109.222 103.593C109.222 105.147 107.962 106.407 106.407 106.407C104.853 106.407 103.593 105.147 103.593 103.593C103.593 102.038 104.853 100.778 106.407 100.778C107.962 100.778 109.222 102.038 109.222 103.593Z" fill="white"/>
</svg>
